<svg xmlns="http://www.w3.org/2000/svg" version="1.1" xmlns:xlink="http://www.w3.org/1999/xlink"
    xmlns:svgjs="http://svgjs.dev/svgjs" viewBox="0 0 800 800" opacity="0.29" width="800"
    height="800">
    <g stroke-width="0.5" stroke="hsla(0, 0%, 100%, 1.00)" fill="none">
        <rect width="57.142857142857146" height="53.333333333333336" x="0" y="0"></rect>
        <rect width="57.142857142857146" height="53.333333333333336" x="57.142857142857146" y="0"></rect>
        <rect width="57.142857142857146" height="53.333333333333336" x="114.28571428571429" y="0"></rect>
        <rect width="57.142857142857146" height="53.333333333333336" x="171.42857142857144" y="0"></rect>
        <rect width="57.142857142857146" height="53.333333333333336" x="228.57142857142858" y="0"></rect>
        <rect width="57.142857142857146" height="53.333333333333336" x="285.7142857142857" y="0"></rect>
        <rect width="57.142857142857146" height="53.333333333333336" x="342.8571428571429" y="0"></rect>
        <rect width="57.142857142857146" height="53.333333333333336" x="400.00000000000006" y="0"></rect>
        <rect width="57.142857142857146" height="53.333333333333336" x="457.1428571428572" y="0"></rect>
        <rect width="57.142857142857146" height="53.333333333333336" x="514.2857142857143" y="0"></rect>
        <rect width="57.142857142857146" height="53.333333333333336" x="571.4285714285714" y="0"></rect>
        <rect width="57.142857142857146" height="53.333333333333336" x="628.5714285714286" y="0"></rect>
        <rect width="57.142857142857146" height="53.333333333333336" x="685.7142857142857" y="0"></rect>
        <rect width="57.142857142857146" height="53.333333333333336" x="742.8571428571428" y="0"></rect>
        <rect width="57.142857142857146" height="53.333333333333336" x="799.9999999999999" y="0"></rect>
        <rect width="57.142857142857146" height="53.333333333333336" x="0" y="53.333333333333336"></rect>
        <rect width="57.142857142857146" height="53.333333333333336" x="57.142857142857146"
            y="53.333333333333336"></rect>
        <rect width="57.142857142857146" height="53.333333333333336" x="114.28571428571429"
            y="53.333333333333336"></rect>
        <rect width="57.142857142857146" height="53.333333333333336" x="171.42857142857144"
            y="53.333333333333336"></rect>
        <rect width="57.142857142857146" height="53.333333333333336" x="228.57142857142858"
            y="53.333333333333336"></rect>
        <rect width="57.142857142857146" height="53.333333333333336" x="285.7142857142857"
            y="53.333333333333336"></rect>
        <rect width="57.142857142857146" height="53.333333333333336" x="342.8571428571429"
            y="53.333333333333336"></rect>
        <rect width="57.142857142857146" height="53.333333333333336" x="400.00000000000006"
            y="53.333333333333336"></rect>
        <rect width="57.142857142857146" height="53.333333333333336" x="457.1428571428572"
            y="53.333333333333336"></rect>
        <rect width="57.142857142857146" height="53.333333333333336" x="514.2857142857143"
            y="53.333333333333336"></rect>
        <rect width="57.142857142857146" height="53.333333333333336" x="571.4285714285714"
            y="53.333333333333336"></rect>
        <rect width="57.142857142857146" height="53.333333333333336" x="628.5714285714286"
            y="53.333333333333336"></rect>
        <rect width="57.142857142857146" height="53.333333333333336" x="685.7142857142857"
            y="53.333333333333336"></rect>
        <rect width="57.142857142857146" height="53.333333333333336" x="742.8571428571428"
            y="53.333333333333336"></rect>
        <rect width="57.142857142857146" height="53.333333333333336" x="799.9999999999999"
            y="53.333333333333336"></rect>
        <rect width="57.142857142857146" height="53.333333333333336" x="0" y="106.66666666666667"></rect>
        <rect width="57.142857142857146" height="53.333333333333336" x="57.142857142857146"
            y="106.66666666666667"></rect>
        <rect width="57.142857142857146" height="53.333333333333336" x="114.28571428571429"
            y="106.66666666666667"></rect>
        <rect width="57.142857142857146" height="53.333333333333336" x="171.42857142857144"
            y="106.66666666666667"></rect>
        <rect width="57.142857142857146" height="53.333333333333336" x="228.57142857142858"
            y="106.66666666666667"></rect>
        <rect width="57.142857142857146" height="53.333333333333336" x="285.7142857142857"
            y="106.66666666666667"></rect>
        <rect width="57.142857142857146" height="53.333333333333336" x="342.8571428571429"
            y="106.66666666666667"></rect>
        <rect width="57.142857142857146" height="53.333333333333336" x="400.00000000000006"
            y="106.66666666666667"></rect>
        <rect width="57.142857142857146" height="53.333333333333336" x="457.1428571428572"
            y="106.66666666666667"></rect>
        <rect width="57.142857142857146" height="53.333333333333336" x="514.2857142857143"
            y="106.66666666666667"></rect>
        <rect width="57.142857142857146" height="53.333333333333336" x="571.4285714285714"
            y="106.66666666666667"></rect>
        <rect width="57.142857142857146" height="53.333333333333336" x="628.5714285714286"
            y="106.66666666666667"></rect>
        <rect width="57.142857142857146" height="53.333333333333336" x="685.7142857142857"
            y="106.66666666666667"></rect>
        <rect width="57.142857142857146" height="53.333333333333336" x="742.8571428571428"
            y="106.66666666666667"></rect>
        <rect width="57.142857142857146" height="53.333333333333336" x="799.9999999999999"
            y="106.66666666666667"></rect>
        <rect width="57.142857142857146" height="53.333333333333336" x="0" y="160"></rect>
        <rect width="57.142857142857146" height="53.333333333333336" x="57.142857142857146" y="160"></rect>
        <rect width="57.142857142857146" height="53.333333333333336" x="114.28571428571429" y="160"></rect>
        <rect width="57.142857142857146" height="53.333333333333336" x="171.42857142857144" y="160"></rect>
        <rect width="57.142857142857146" height="53.333333333333336" x="228.57142857142858" y="160"></rect>
        <rect width="57.142857142857146" height="53.333333333333336" x="285.7142857142857" y="160"></rect>
        <rect width="57.142857142857146" height="53.333333333333336" x="342.8571428571429" y="160"></rect>
        <rect width="57.142857142857146" height="53.333333333333336" x="400.00000000000006" y="160"></rect>
        <rect width="57.142857142857146" height="53.333333333333336" x="457.1428571428572" y="160"></rect>
        <rect width="57.142857142857146" height="53.333333333333336" x="514.2857142857143" y="160"></rect>
        <rect width="57.142857142857146" height="53.333333333333336" x="571.4285714285714" y="160"></rect>
        <rect width="57.142857142857146" height="53.333333333333336" x="628.5714285714286" y="160"></rect>
        <rect width="57.142857142857146" height="53.333333333333336" x="685.7142857142857" y="160"></rect>
        <rect width="57.142857142857146" height="53.333333333333336" x="742.8571428571428" y="160"></rect>
        <rect width="57.142857142857146" height="53.333333333333336" x="799.9999999999999" y="160"></rect>
        <rect width="57.142857142857146" height="53.333333333333336" x="0" y="213.33333333333334"></rect>
        <rect width="57.142857142857146" height="53.333333333333336" x="57.142857142857146"
            y="213.33333333333334"></rect>
        <rect width="57.142857142857146" height="53.333333333333336" x="114.28571428571429"
            y="213.33333333333334"></rect>
        <rect width="57.142857142857146" height="53.333333333333336" x="171.42857142857144"
            y="213.33333333333334"></rect>
        <rect width="57.142857142857146" height="53.333333333333336" x="228.57142857142858"
            y="213.33333333333334"></rect>
        <rect width="57.142857142857146" height="53.333333333333336" x="285.7142857142857"
            y="213.33333333333334"></rect>
        <rect width="57.142857142857146" height="53.333333333333336" x="342.8571428571429"
            y="213.33333333333334"></rect>
        <rect width="57.142857142857146" height="53.333333333333336" x="400.00000000000006"
            y="213.33333333333334"></rect>
        <rect width="57.142857142857146" height="53.333333333333336" x="457.1428571428572"
            y="213.33333333333334"></rect>
        <rect width="57.142857142857146" height="53.333333333333336" x="514.2857142857143"
            y="213.33333333333334"></rect>
        <rect width="57.142857142857146" height="53.333333333333336" x="571.4285714285714"
            y="213.33333333333334"></rect>
        <rect width="57.142857142857146" height="53.333333333333336" x="628.5714285714286"
            y="213.33333333333334"></rect>
        <rect width="57.142857142857146" height="53.333333333333336" x="685.7142857142857"
            y="213.33333333333334"></rect>
        <rect width="57.142857142857146" height="53.333333333333336" x="742.8571428571428"
            y="213.33333333333334"></rect>
        <rect width="57.142857142857146" height="53.333333333333336" x="799.9999999999999"
            y="213.33333333333334"></rect>
        <rect width="57.142857142857146" height="53.333333333333336" x="0" y="266.6666666666667"></rect>
        <rect width="57.142857142857146" height="53.333333333333336" x="57.142857142857146"
            y="266.6666666666667"></rect>
        <rect width="57.142857142857146" height="53.333333333333336" x="114.28571428571429"
            y="266.6666666666667"></rect>
        <rect width="57.142857142857146" height="53.333333333333336" x="171.42857142857144"
            y="266.6666666666667"></rect>
        <rect width="57.142857142857146" height="53.333333333333336" x="228.57142857142858"
            y="266.6666666666667"></rect>
        <rect width="57.142857142857146" height="53.333333333333336" x="285.7142857142857"
            y="266.6666666666667"></rect>
        <rect width="57.142857142857146" height="53.333333333333336" x="342.8571428571429"
            y="266.6666666666667"></rect>
        <rect width="57.142857142857146" height="53.333333333333336" x="400.00000000000006"
            y="266.6666666666667"></rect>
        <rect width="57.142857142857146" height="53.333333333333336" x="457.1428571428572"
            y="266.6666666666667"></rect>
        <rect width="57.142857142857146" height="53.333333333333336" x="514.2857142857143"
            y="266.6666666666667"></rect>
        <rect width="57.142857142857146" height="53.333333333333336" x="571.4285714285714"
            y="266.6666666666667"></rect>
        <rect width="57.142857142857146" height="53.333333333333336" x="628.5714285714286"
            y="266.6666666666667"></rect>
        <rect width="57.142857142857146" height="53.333333333333336" x="685.7142857142857"
            y="266.6666666666667"></rect>
        <rect width="57.142857142857146" height="53.333333333333336" x="742.8571428571428"
            y="266.6666666666667"></rect>
        <rect width="57.142857142857146" height="53.333333333333336" x="799.9999999999999"
            y="266.6666666666667"></rect>
        <rect width="57.142857142857146" height="53.333333333333336" x="0" y="320"></rect>
        <rect width="57.142857142857146" height="53.333333333333336" x="57.142857142857146" y="320"></rect>
        <rect width="57.142857142857146" height="53.333333333333336" x="114.28571428571429" y="320"></rect>
        <rect width="57.142857142857146" height="53.333333333333336" x="171.42857142857144" y="320"></rect>
        <rect width="57.142857142857146" height="53.333333333333336" x="228.57142857142858" y="320"></rect>
        <rect width="57.142857142857146" height="53.333333333333336" x="285.7142857142857" y="320"></rect>
        <rect width="57.142857142857146" height="53.333333333333336" x="342.8571428571429" y="320"></rect>
        <rect width="57.142857142857146" height="53.333333333333336" x="400.00000000000006" y="320"></rect>
        <rect width="57.142857142857146" height="53.333333333333336" x="457.1428571428572" y="320"></rect>
        <rect width="57.142857142857146" height="53.333333333333336" x="514.2857142857143" y="320"></rect>
        <rect width="57.142857142857146" height="53.333333333333336" x="571.4285714285714" y="320"></rect>
        <rect width="57.142857142857146" height="53.333333333333336" x="628.5714285714286" y="320"></rect>
        <rect width="57.142857142857146" height="53.333333333333336" x="685.7142857142857" y="320"></rect>
        <rect width="57.142857142857146" height="53.333333333333336" x="742.8571428571428" y="320"></rect>
        <rect width="57.142857142857146" height="53.333333333333336" x="799.9999999999999" y="320"></rect>
        <rect width="57.142857142857146" height="53.333333333333336" x="0" y="373.3333333333333"></rect>
        <rect width="57.142857142857146" height="53.333333333333336" x="57.142857142857146"
            y="373.3333333333333"></rect>
        <rect width="57.142857142857146" height="53.333333333333336" x="114.28571428571429"
            y="373.3333333333333"></rect>
        <rect width="57.142857142857146" height="53.333333333333336" x="171.42857142857144"
            y="373.3333333333333"></rect>
        <rect width="57.142857142857146" height="53.333333333333336" x="228.57142857142858"
            y="373.3333333333333"></rect>
        <rect width="57.142857142857146" height="53.333333333333336" x="285.7142857142857"
            y="373.3333333333333"></rect>
        <rect width="57.142857142857146" height="53.333333333333336" x="342.8571428571429"
            y="373.3333333333333"></rect>
        <rect width="57.142857142857146" height="53.333333333333336" x="400.00000000000006"
            y="373.3333333333333"></rect>
        <rect width="57.142857142857146" height="53.333333333333336" x="457.1428571428572"
            y="373.3333333333333"></rect>
        <rect width="57.142857142857146" height="53.333333333333336" x="514.2857142857143"
            y="373.3333333333333"></rect>
        <rect width="57.142857142857146" height="53.333333333333336" x="571.4285714285714"
            y="373.3333333333333"></rect>
        <rect width="57.142857142857146" height="53.333333333333336" x="628.5714285714286"
            y="373.3333333333333"></rect>
        <rect width="57.142857142857146" height="53.333333333333336" x="685.7142857142857"
            y="373.3333333333333"></rect>
        <rect width="57.142857142857146" height="53.333333333333336" x="742.8571428571428"
            y="373.3333333333333"></rect>
        <rect width="57.142857142857146" height="53.333333333333336" x="799.9999999999999"
            y="373.3333333333333"></rect>
        <rect width="57.142857142857146" height="53.333333333333336" x="0" y="426.66666666666663"></rect>
        <rect width="57.142857142857146" height="53.333333333333336" x="57.142857142857146"
            y="426.66666666666663"></rect>
        <rect width="57.142857142857146" height="53.333333333333336" x="114.28571428571429"
            y="426.66666666666663"></rect>
        <rect width="57.142857142857146" height="53.333333333333336" x="171.42857142857144"
            y="426.66666666666663"></rect>
        <rect width="57.142857142857146" height="53.333333333333336" x="228.57142857142858"
            y="426.66666666666663"></rect>
        <rect width="57.142857142857146" height="53.333333333333336" x="285.7142857142857"
            y="426.66666666666663"></rect>
        <rect width="57.142857142857146" height="53.333333333333336" x="342.8571428571429"
            y="426.66666666666663"></rect>
        <rect width="57.142857142857146" height="53.333333333333336" x="400.00000000000006"
            y="426.66666666666663"></rect>
        <rect width="57.142857142857146" height="53.333333333333336" x="457.1428571428572"
            y="426.66666666666663"></rect>
        <rect width="57.142857142857146" height="53.333333333333336" x="514.2857142857143"
            y="426.66666666666663"></rect>
        <rect width="57.142857142857146" height="53.333333333333336" x="571.4285714285714"
            y="426.66666666666663"></rect>
        <rect width="57.142857142857146" height="53.333333333333336" x="628.5714285714286"
            y="426.66666666666663"></rect>
        <rect width="57.142857142857146" height="53.333333333333336" x="685.7142857142857"
            y="426.66666666666663"></rect>
        <rect width="57.142857142857146" height="53.333333333333336" x="742.8571428571428"
            y="426.66666666666663"></rect>
        <rect width="57.142857142857146" height="53.333333333333336" x="799.9999999999999"
            y="426.66666666666663"></rect>
        <rect width="57.142857142857146" height="53.333333333333336" x="0" y="479.99999999999994"></rect>
        <rect width="57.142857142857146" height="53.333333333333336" x="57.142857142857146"
            y="479.99999999999994"></rect>
        <rect width="57.142857142857146" height="53.333333333333336" x="114.28571428571429"
            y="479.99999999999994"></rect>
        <rect width="57.142857142857146" height="53.333333333333336" x="171.42857142857144"
            y="479.99999999999994"></rect>
        <rect width="57.142857142857146" height="53.333333333333336" x="228.57142857142858"
            y="479.99999999999994"></rect>
        <rect width="57.142857142857146" height="53.333333333333336" x="285.7142857142857"
            y="479.99999999999994"></rect>
        <rect width="57.142857142857146" height="53.333333333333336" x="342.8571428571429"
            y="479.99999999999994"></rect>
        <rect width="57.142857142857146" height="53.333333333333336" x="400.00000000000006"
            y="479.99999999999994"></rect>
        <rect width="57.142857142857146" height="53.333333333333336" x="457.1428571428572"
            y="479.99999999999994"></rect>
        <rect width="57.142857142857146" height="53.333333333333336" x="514.2857142857143"
            y="479.99999999999994"></rect>
        <rect width="57.142857142857146" height="53.333333333333336" x="571.4285714285714"
            y="479.99999999999994"></rect>
        <rect width="57.142857142857146" height="53.333333333333336" x="628.5714285714286"
            y="479.99999999999994"></rect>
        <rect width="57.142857142857146" height="53.333333333333336" x="685.7142857142857"
            y="479.99999999999994"></rect>
        <rect width="57.142857142857146" height="53.333333333333336" x="742.8571428571428"
            y="479.99999999999994"></rect>
        <rect width="57.142857142857146" height="53.333333333333336" x="799.9999999999999"
            y="479.99999999999994"></rect>
        <rect width="57.142857142857146" height="53.333333333333336" x="0" y="533.3333333333333"></rect>
        <rect width="57.142857142857146" height="53.333333333333336" x="57.142857142857146"
            y="533.3333333333333"></rect>
        <rect width="57.142857142857146" height="53.333333333333336" x="114.28571428571429"
            y="533.3333333333333"></rect>
        <rect width="57.142857142857146" height="53.333333333333336" x="171.42857142857144"
            y="533.3333333333333"></rect>
        <rect width="57.142857142857146" height="53.333333333333336" x="228.57142857142858"
            y="533.3333333333333"></rect>
        <rect width="57.142857142857146" height="53.333333333333336" x="285.7142857142857"
            y="533.3333333333333"></rect>
        <rect width="57.142857142857146" height="53.333333333333336" x="342.8571428571429"
            y="533.3333333333333"></rect>
        <rect width="57.142857142857146" height="53.333333333333336" x="400.00000000000006"
            y="533.3333333333333"></rect>
        <rect width="57.142857142857146" height="53.333333333333336" x="457.1428571428572"
            y="533.3333333333333"></rect>
        <rect width="57.142857142857146" height="53.333333333333336" x="514.2857142857143"
            y="533.3333333333333"></rect>
        <rect width="57.142857142857146" height="53.333333333333336" x="571.4285714285714"
            y="533.3333333333333"></rect>
        <rect width="57.142857142857146" height="53.333333333333336" x="628.5714285714286"
            y="533.3333333333333"></rect>
        <rect width="57.142857142857146" height="53.333333333333336" x="685.7142857142857"
            y="533.3333333333333"></rect>
        <rect width="57.142857142857146" height="53.333333333333336" x="742.8571428571428"
            y="533.3333333333333"></rect>
        <rect width="57.142857142857146" height="53.333333333333336" x="799.9999999999999"
            y="533.3333333333333"></rect>
        <rect width="57.142857142857146" height="53.333333333333336" x="0" y="586.6666666666666"></rect>
        <rect width="57.142857142857146" height="53.333333333333336" x="57.142857142857146"
            y="586.6666666666666"></rect>
        <rect width="57.142857142857146" height="53.333333333333336" x="114.28571428571429"
            y="586.6666666666666"></rect>
        <rect width="57.142857142857146" height="53.333333333333336" x="171.42857142857144"
            y="586.6666666666666"></rect>
        <rect width="57.142857142857146" height="53.333333333333336" x="228.57142857142858"
            y="586.6666666666666"></rect>
        <rect width="57.142857142857146" height="53.333333333333336" x="285.7142857142857"
            y="586.6666666666666"></rect>
        <rect width="57.142857142857146" height="53.333333333333336" x="342.8571428571429"
            y="586.6666666666666"></rect>
        <rect width="57.142857142857146" height="53.333333333333336" x="400.00000000000006"
            y="586.6666666666666"></rect>
        <rect width="57.142857142857146" height="53.333333333333336" x="457.1428571428572"
            y="586.6666666666666"></rect>
        <rect width="57.142857142857146" height="53.333333333333336" x="514.2857142857143"
            y="586.6666666666666"></rect>
        <rect width="57.142857142857146" height="53.333333333333336" x="571.4285714285714"
            y="586.6666666666666"></rect>
        <rect width="57.142857142857146" height="53.333333333333336" x="628.5714285714286"
            y="586.6666666666666"></rect>
        <rect width="57.142857142857146" height="53.333333333333336" x="685.7142857142857"
            y="586.6666666666666"></rect>
        <rect width="57.142857142857146" height="53.333333333333336" x="742.8571428571428"
            y="586.6666666666666"></rect>
        <rect width="57.142857142857146" height="53.333333333333336" x="799.9999999999999"
            y="586.6666666666666"></rect>
        <rect width="57.142857142857146" height="53.333333333333336" x="0" y="640"></rect>
        <rect width="57.142857142857146" height="53.333333333333336" x="57.142857142857146" y="640"></rect>
        <rect width="57.142857142857146" height="53.333333333333336" x="114.28571428571429" y="640"></rect>
        <rect width="57.142857142857146" height="53.333333333333336" x="171.42857142857144" y="640"></rect>
        <rect width="57.142857142857146" height="53.333333333333336" x="228.57142857142858" y="640"></rect>
        <rect width="57.142857142857146" height="53.333333333333336" x="285.7142857142857" y="640"></rect>
        <rect width="57.142857142857146" height="53.333333333333336" x="342.8571428571429" y="640"></rect>
        <rect width="57.142857142857146" height="53.333333333333336" x="400.00000000000006" y="640"></rect>
        <rect width="57.142857142857146" height="53.333333333333336" x="457.1428571428572" y="640"></rect>
        <rect width="57.142857142857146" height="53.333333333333336" x="514.2857142857143" y="640"></rect>
        <rect width="57.142857142857146" height="53.333333333333336" x="571.4285714285714" y="640"></rect>
        <rect width="57.142857142857146" height="53.333333333333336" x="628.5714285714286" y="640"></rect>
        <rect width="57.142857142857146" height="53.333333333333336" x="685.7142857142857" y="640"></rect>
        <rect width="57.142857142857146" height="53.333333333333336" x="742.8571428571428" y="640"></rect>
        <rect width="57.142857142857146" height="53.333333333333336" x="799.9999999999999" y="640"></rect>
        <rect width="57.142857142857146" height="53.333333333333336" x="0" y="693.3333333333334"></rect>
        <rect width="57.142857142857146" height="53.333333333333336" x="57.142857142857146"
            y="693.3333333333334"></rect>
        <rect width="57.142857142857146" height="53.333333333333336" x="114.28571428571429"
            y="693.3333333333334"></rect>
        <rect width="57.142857142857146" height="53.333333333333336" x="171.42857142857144"
            y="693.3333333333334"></rect>
        <rect width="57.142857142857146" height="53.333333333333336" x="228.57142857142858"
            y="693.3333333333334"></rect>
        <rect width="57.142857142857146" height="53.333333333333336" x="285.7142857142857"
            y="693.3333333333334"></rect>
        <rect width="57.142857142857146" height="53.333333333333336" x="342.8571428571429"
            y="693.3333333333334"></rect>
        <rect width="57.142857142857146" height="53.333333333333336" x="400.00000000000006"
            y="693.3333333333334"></rect>
        <rect width="57.142857142857146" height="53.333333333333336" x="457.1428571428572"
            y="693.3333333333334"></rect>
        <rect width="57.142857142857146" height="53.333333333333336" x="514.2857142857143"
            y="693.3333333333334"></rect>
        <rect width="57.142857142857146" height="53.333333333333336" x="571.4285714285714"
            y="693.3333333333334"></rect>
        <rect width="57.142857142857146" height="53.333333333333336" x="628.5714285714286"
            y="693.3333333333334"></rect>
        <rect width="57.142857142857146" height="53.333333333333336" x="685.7142857142857"
            y="693.3333333333334"></rect>
        <rect width="57.142857142857146" height="53.333333333333336" x="742.8571428571428"
            y="693.3333333333334"></rect>
        <rect width="57.142857142857146" height="53.333333333333336" x="799.9999999999999"
            y="693.3333333333334"></rect>
        <rect width="57.142857142857146" height="53.333333333333336" x="0" y="746.6666666666667"></rect>
        <rect width="57.142857142857146" height="53.333333333333336" x="57.142857142857146"
            y="746.6666666666667"></rect>
        <rect width="57.142857142857146" height="53.333333333333336" x="114.28571428571429"
            y="746.6666666666667"></rect>
        <rect width="57.142857142857146" height="53.333333333333336" x="171.42857142857144"
            y="746.6666666666667"></rect>
        <rect width="57.142857142857146" height="53.333333333333336" x="228.57142857142858"
            y="746.6666666666667"></rect>
        <rect width="57.142857142857146" height="53.333333333333336" x="285.7142857142857"
            y="746.6666666666667"></rect>
        <rect width="57.142857142857146" height="53.333333333333336" x="342.8571428571429"
            y="746.6666666666667"></rect>
        <rect width="57.142857142857146" height="53.333333333333336" x="400.00000000000006"
            y="746.6666666666667"></rect>
        <rect width="57.142857142857146" height="53.333333333333336" x="457.1428571428572"
            y="746.6666666666667"></rect>
        <rect width="57.142857142857146" height="53.333333333333336" x="514.2857142857143"
            y="746.6666666666667"></rect>
        <rect width="57.142857142857146" height="53.333333333333336" x="571.4285714285714"
            y="746.6666666666667"></rect>
        <rect width="57.142857142857146" height="53.333333333333336" x="628.5714285714286"
            y="746.6666666666667"></rect>
        <rect width="57.142857142857146" height="53.333333333333336" x="685.7142857142857"
            y="746.6666666666667"></rect>
        <rect width="57.142857142857146" height="53.333333333333336" x="742.8571428571428"
            y="746.6666666666667"></rect>
        <rect width="57.142857142857146" height="53.333333333333336" x="799.9999999999999"
            y="746.6666666666667"></rect>
        <rect width="57.142857142857146" height="53.333333333333336" x="0" y="800.0000000000001"></rect>
        <rect width="57.142857142857146" height="53.333333333333336" x="57.142857142857146"
            y="800.0000000000001"></rect>
        <rect width="57.142857142857146" height="53.333333333333336" x="114.28571428571429"
            y="800.0000000000001"></rect>
        <rect width="57.142857142857146" height="53.333333333333336" x="171.42857142857144"
            y="800.0000000000001"></rect>
        <rect width="57.142857142857146" height="53.333333333333336" x="228.57142857142858"
            y="800.0000000000001"></rect>
        <rect width="57.142857142857146" height="53.333333333333336" x="285.7142857142857"
            y="800.0000000000001"></rect>
        <rect width="57.142857142857146" height="53.333333333333336" x="342.8571428571429"
            y="800.0000000000001"></rect>
        <rect width="57.142857142857146" height="53.333333333333336" x="400.00000000000006"
            y="800.0000000000001"></rect>
        <rect width="57.142857142857146" height="53.333333333333336" x="457.1428571428572"
            y="800.0000000000001"></rect>
        <rect width="57.142857142857146" height="53.333333333333336" x="514.2857142857143"
            y="800.0000000000001"></rect>
        <rect width="57.142857142857146" height="53.333333333333336" x="571.4285714285714"
            y="800.0000000000001"></rect>
        <rect width="57.142857142857146" height="53.333333333333336" x="628.5714285714286"
            y="800.0000000000001"></rect>
        <rect width="57.142857142857146" height="53.333333333333336" x="685.7142857142857"
            y="800.0000000000001"></rect>
        <rect width="57.142857142857146" height="53.333333333333336" x="742.8571428571428"
            y="800.0000000000001"></rect>
        <rect width="57.142857142857146" height="53.333333333333336" x="799.9999999999999"
            y="800.0000000000001"></rect>
    </g>
</svg>